<?xml version="1.0" encoding="utf-8"?>
<!-- Generator: Adobe Illustrator 27.5.0, SVG Export Plug-In . SVG Version: 6.00 Build 0)  -->
<svg version="1.1" xmlns="http://www.w3.org/2000/svg" xmlns:xlink="http://www.w3.org/1999/xlink" x="0px" y="0px"
	 viewBox="0 0 750 500" style="enable-background:new 0 0 750 500;" xml:space="preserve">
<g id="BACKGROUND_2">
	<rect x="0.003" style="fill:#004252;" width="750" height="500"/>
	<g>
		<path style="fill:#00BDD6;" d="M684.413,486.25c0,3.61-0.229,7.16-0.689,10.64c-0.131,1.051-0.29,2.08-0.471,3.11h-161.35
			c-0.29-1.68-0.53-3.38-0.71-5.09c-0.24-2.33-0.391-4.68-0.43-7.061c-0.011-0.529-0.021-1.06-0.021-1.6
			c0-26.22,12.33-49.55,31.51-64.52c2.32-1.82,4.75-3.511,7.261-5.07c1.8-1.12,3.649-2.17,5.55-3.15
			c11.239-5.81,24-9.09,37.519-9.09c2.29,0,4.561,0.09,6.8,0.28c15.67,1.29,30.091,6.99,42.011,15.87
			c7.689,5.72,14.34,12.77,19.609,20.8c3.44,5.21,6.29,10.83,8.46,16.79v0.01C682.663,466.93,684.413,476.39,684.413,486.25z"/>
		<path style="fill:#00BDD6;" d="M571.293,455.86c0,16.67-5.74,32.01-15.35,44.14h-111.58c-5.6-7.07-9.89-15.22-12.48-24.1
			c-1.54-5.23-2.489-10.721-2.779-16.381c0,0,0,0,0-0.01c-0.06-1.21-0.09-2.43-0.09-3.649c0-1.67,0.06-3.33,0.18-4.971
			c0.09-1.479,0.24-2.939,0.43-4.39c0.5-3.8,1.3-7.5,2.38-11.08c2.36-7.92,6.08-15.26,10.87-21.75c0.021-0.02,0.03-0.04,0.04-0.059
			c12.96-17.53,33.771-28.891,57.24-28.891c11.74,0,22.81,2.84,32.57,7.88c10.869,5.601,20.1,13.92,26.79,24.061
			c1.18,1.76,2.26,3.57,3.26,5.43c4.5,8.311,7.38,17.61,8.24,27.49C571.203,451.65,571.293,453.74,571.293,455.86z"/>
		
			<ellipse transform="matrix(0.9442 -0.3292 0.3292 0.9442 -120.3523 175.2421)" style="fill:#00BDD6;" cx="457.263" cy="442.986" rx="32.652" ry="32.652"/>
		<circle style="fill:#00BDD6;" cx="433.653" cy="429" r="17.965"/>
		<path style="fill:#00BDD6;" d="M626.434,447.86c0,7.739-1.391,15.159-3.95,22.01c-0.01,0.04-0.021,0.08-0.04,0.12
			c-4.59,12.27-12.9,22.74-23.55,30.01h-71.2c-2.28-1.55-4.45-3.26-6.5-5.09c-5.79-5.18-10.62-11.42-14.18-18.42
			c-4.391-8.59-6.86-18.32-6.86-28.63v-0.301c0.11-23.659,13.229-44.239,32.57-54.96c9.06-5.02,19.479-7.88,30.569-7.88
			c0.36,0,0.721,0,1.08,0.011c17.75,0.3,33.72,7.92,45.01,19.97c8.16,8.72,13.881,19.75,16.07,32.01
			C626.093,440.33,626.434,444.06,626.434,447.86z"/>
		<circle style="fill:#00BDD6;" cx="637.293" cy="397.347" r="74"/>
		<path style="fill:#00BDD6;" d="M750.003,385.33V500h-88.21c-7.08-8.36-12.33-18.3-15.149-29.23c-0.03-0.109-0.061-0.21-0.08-0.319
			c-1.481-5.83-2.271-11.95-2.271-18.24c0-3.1,0.19-6.16,0.56-9.16c0.979-7.96,3.229-15.52,6.54-22.479
			c10.58-22.36,32.04-38.561,57.55-41.78c3.06-0.38,6.18-0.58,9.35-0.58C729.644,378.21,740.394,380.76,750.003,385.33z"/>
		<path style="fill:#00BDD6;" d="M229.253,486.25c0,4.69-0.39,9.28-1.16,13.75h-34.279c-0.04,0.16-0.07,0.33-0.101,0.49
			c-0.13-0.16-0.26-0.32-0.39-0.49h-82.67c-0.07,0.12-0.15,0.24-0.23,0.35c-0.06-0.109-0.12-0.23-0.17-0.35h-43.51
			c-0.42-2.43-0.73-4.91-0.92-7.41c-0.16-2.09-0.24-4.21-0.24-6.34c0-15.34,4.23-29.7,11.58-41.98c7.41-12.38,18-22.63,30.64-29.63
			c1.16-0.649,2.33-1.26,3.53-1.85c9.2-4.53,19.38-7.38,30.141-8.15c1.97-0.149,3.949-0.22,5.949-0.22c3.99,0,7.9,0.29,11.74,0.84
			h0.01c10.54,1.51,20.441,5.04,29.28,10.181c15.62,9.069,27.96,23.149,34.811,40.05c0.09,0.189,0.159,0.38,0.23,0.569
			C227.213,465.4,229.253,475.59,229.253,486.25z"/>
		<path style="fill:#00BDD6;" d="M123.573,455.86c0,2.559-0.12,5.1-0.35,7.6c-0.011,0.01-0.011,0.01,0,0.01
			c-0.671,7.311-2.311,14.33-4.78,20.95c-0.65,1.771-1.37,3.51-2.15,5.22c-1.63,3.601-3.52,7.061-5.64,10.36
			c-0.07,0.12-0.15,0.24-0.23,0.35c-0.06-0.109-0.12-0.23-0.17-0.35H0.003V385.46c8.92-5.3,18.931-8.95,29.62-10.54
			c3.95-0.59,7.99-0.89,12.11-0.89c27.689,0,52.17,13.75,66.979,34.8c0.91,1.29,1.78,2.61,2.62,3.96
			c2.33,3.76,4.37,7.729,6.08,11.87C121.383,434.28,123.573,444.81,123.573,455.86z"/>
		<path style="fill:#00BDD6;" d="M322.514,454.33c0,0.28,0,0.559-0.011,0.84c0,0.43-0.01,0.87-0.02,1.3
			c-0.15,5.15-0.84,10.17-2.01,15c-2.53,10.49-7.341,20.09-13.881,28.25c-0.069,0.101-0.149,0.19-0.23,0.28h-112.55
			c-0.04,0.16-0.07,0.33-0.101,0.49c-0.13-0.16-0.26-0.32-0.39-0.49c-4.04-4.98-7.43-10.52-10.04-16.47
			c-3.93-8.931-6.11-18.811-6.11-29.2c0-14.311,4.141-27.65,11.28-38.89c3.18-5.021,6.96-9.61,11.25-13.7
			c6.72-6.41,14.66-11.54,23.441-15.01c8.27-3.271,17.27-5.061,26.699-5.061c24.811,0,46.73,12.441,59.83,31.42
			c0.79,1.141,1.54,2.3,2.261,3.48c2.76,4.51,5.029,9.35,6.75,14.43c1.68,4.95,2.84,10.13,3.409,15.49
			C322.373,449.06,322.514,451.68,322.514,454.33z"/>
		
			<ellipse transform="matrix(0.1586 -0.9873 0.9873 0.1586 -191.0635 661.7758)" style="fill:#00BDD6;" cx="292.737" cy="442.986" rx="32.652" ry="32.652"/>
		<circle style="fill:#00BDD6;" cx="318.007" cy="429" r="17.965"/>
		<path style="fill:#00BDD6;" d="M233.68,421.67c0,34.869-28.268,63.137-63.137,63.137c-34.869,0-63.137-28.268-63.137-63.137
			c0-34.869,28.268-63.138,63.137-63.138C205.412,358.532,233.68,386.801,233.68,421.67z"/>
		<path style="fill:#00BDD6;" d="M496.023,500h-245.96l52.17-52.17l-0.33-2.33c0,0,1.53-1.06,4.12-3.12
			c3.04-2.43,7.52-6.24,12.66-11.38c0.989-0.99,2-2.02,3.029-3.1c3.08-3.23,6.33-6.891,9.601-10.971
			c15.7-19.569,31.91-48.71,32.31-85.93h18.84c0.431,39.61,18.75,70.07,35.33,89.58c3.19,3.77,6.32,7.13,9.24,10.059
			c1.75,1.75,3.41,3.341,4.97,4.78c4.91,4.54,8.8,7.59,10.77,9.05c0.91,0.69,1.41,1.03,1.41,1.03l-0.33,2.33l18,18l7.489,7.49
			l14.721,14.72L496.023,500z"/>
		<circle style="fill:#00BDD6;" cx="86.991" cy="421.67" r="74"/>
	</g>
	<g>
		<path style="fill:#1985A6;" d="M244.953,468.02c0,11.5-2.73,22.37-7.57,31.98h-43.569c-0.04,0.16-0.07,0.33-0.101,0.49
			c-0.13-0.16-0.26-0.32-0.39-0.49h-82.67c-0.07,0.12-0.15,0.24-0.23,0.35c-0.06-0.109-0.12-0.23-0.17-0.35
			c-1.17-2.3-2.21-4.67-3.109-7.11c-2.891-7.739-4.471-16.12-4.471-24.87c0-2.369,0.12-4.72,0.351-7.029
			c0.8-8.271,3.029-16.13,6.43-23.32c2.191-4.64,4.87-9,7.96-13.01c6.41-8.33,14.62-15.2,24.061-20.021
			c4.989-2.55,10.319-4.529,15.909-5.85c5.27-1.25,10.77-1.91,16.431-1.91c9.13,0,17.87,1.72,25.89,4.86
			c13.811,5.399,25.52,14.979,33.561,27.2c3.539,5.369,6.369,11.239,8.35,17.5C243.783,453.24,244.953,460.5,244.953,468.02z"/>
		<path style="fill:#1985A6;" d="M529.974,500H407.963c5.91-9.83,14.13-18.12,23.92-24.1c2.87-1.77,5.881-3.33,9-4.67
			c0.54-0.23,1.08-0.461,1.631-0.671c6.069-2.44,12.569-4.06,19.34-4.729c2.34-0.24,4.72-0.36,7.12-0.36
			c3.779,0,7.5,0.3,11.119,0.87c2.801,0.43,5.54,1.03,8.21,1.79c6.691,1.88,12.98,4.72,18.711,8.36c5.05,3.2,9.67,7.02,13.75,11.359
			C524.253,491.55,527.343,495.62,529.974,500z"/>
		<path style="fill:#1985A6;" d="M448.873,500H305.634v-0.282c0.051-11.769,2.93-22.863,8.004-32.639v-0.01
			c0.313-0.594,0.624-1.178,0.956-1.762c2.034-3.694,4.409-7.188,7.057-10.44c0.323-0.402,0.655-0.805,0.997-1.197
			c13.138-15.474,32.729-25.289,54.606-25.289c18.182,0,34.782,6.774,47.407,17.95c1.53,1.338,3,2.748,4.399,4.228
			c5.507,5.77,10.067,12.453,13.41,19.803c0.302,0.654,0.594,1.319,0.875,1.993v0.01C446.91,480.872,448.873,490.204,448.873,500z"
			/>
		<path style="fill:#1985A6;" d="M192.094,500c1.812-9.051,5.346-17.478,10.238-24.936c5.104-7.823,11.719-14.588,19.41-19.873
			c0.343-0.242,0.694-0.484,1.047-0.705c5.346-3.555,11.205-6.403,17.427-8.406c5.899-1.913,12.131-3.081,18.595-3.393
			c1.158-0.051,2.315-0.081,3.483-0.081c12.635,0,24.504,3.272,34.804,9.021c6.534,3.624,12.433,8.256,17.497,13.682
			c0.141,0.151,0.282,0.302,0.423,0.453c1.621,1.762,3.151,3.594,4.591,5.517c6.272,8.346,10.752,18.111,12.887,28.723H192.094z"/>
		<path style="fill:#1985A6;" d="M626.184,492.81c0,2.431-0.12,4.82-0.36,7.19h-141.56c-0.24-2.37-0.36-4.76-0.36-7.19
			c0-1.6,0.05-3.19,0.16-4.77c0.46-6.96,1.92-13.64,4.239-19.91c2.79-7.54,6.82-14.48,11.851-20.57
			c12.49-15.14,31.13-25.029,52.1-25.829c0.931-0.04,1.86-0.061,2.79-0.061c2.61,0,5.19,0.14,7.73,0.42
			c1.689,0.18,3.359,0.42,5.02,0.72c11.73,2.12,22.471,7.12,31.44,14.25c10.58,8.4,18.72,19.74,23.16,32.79
			c0.019,0.051,0.04,0.091,0.05,0.141C624.873,477.15,626.184,484.83,626.184,492.81z"/>
		<path style="fill:#1985A6;" d="M542.463,500c1.95-20.65,12.74-38.73,28.551-50.42c2.789-2.07,5.739-3.93,8.829-5.58
			c6-3.2,12.521-5.57,19.391-6.94c4.54-0.909,9.24-1.39,14.04-1.39c4.149,0,8.22,0.36,12.18,1.04c6.86,1.18,13.37,3.34,19.4,6.34
			c4.979,2.47,9.63,5.51,13.859,9.03c4.17,3.45,7.931,7.38,11.21,11.7c7.2,9.46,12.08,20.77,13.801,33.109
			c0.149,1.03,0.27,2.07,0.359,3.11H542.463z"/>
		<path style="fill:#1985A6;" d="M750.003,440.31V500h-109.85c0-10.41,2.229-20.29,6.25-29.2c0.05-0.12,0.11-0.24,0.16-0.35
			c3.09-6.76,7.21-12.95,12.149-18.37c3.67-4.021,7.79-7.62,12.29-10.71c9.59-6.61,20.88-10.92,33.09-12.15
			c2.37-0.239,4.771-0.359,7.2-0.359C725.573,428.86,738.863,433.07,750.003,440.31z"/>
		<path style="fill:#1985A6;" d="M122.733,500h-12.08c-0.07,0.12-0.15,0.24-0.23,0.35c-0.06-0.109-0.12-0.23-0.17-0.35H0.003v-37.09
			c5.2-5.67,11.3-10.49,18.08-14.22c10.181-5.641,21.891-8.841,34.351-8.841c8.689,0,17.029,1.561,24.73,4.42
			c9.83,3.641,18.64,9.4,25.86,16.721c6.59,6.649,11.87,14.6,15.42,23.43c0.479,1.191,0.93,2.39,1.34,3.61
			C121.104,491.88,122.093,495.88,122.733,500z"/>
	</g>
	<g>
		<path style="fill:#B3E7FF;" d="M430.593,248.03v35.77h-15v8.74c0,4.12-3.24,7.49-7.3,7.7c-0.13,0.01-0.27,0.01-0.4,0.01h-69.37
			c-4.25,0-7.699-3.46-7.699-7.71v-8.74h-15v-35.77c0-8.41,4.09-20.48,9.22-27.4c0.149-0.19,0.29-0.38,0.44-0.57l5.34-6.81
			l13.199-16.85l5.011-6.39l0.94-1.2l3.939-5.02c0-0.01,0.01-0.01,0.01-0.01l9.63-12.29c2.441-3.12,5.58-4.81,8.78-5.06
			c0.24-0.02,0.47-0.03,0.71-0.03v-0.01c0.28,0,0.55,0,0.819,0.02c0.02,0,0.041,0,0.06,0.01c3.25,0.21,6.46,1.9,8.94,5.07
			l4.689,5.98l4.95,6.31l3.95,5.04l0.93,1.19l5.01,6.39l13.2,16.85l0.06,0.08l5.279,6.73c0.17,0.21,0.33,0.43,0.5,0.65
			C426.543,227.65,430.593,239.65,430.593,248.03z"/>
		<path style="fill:#B3E7FF;" d="M455.852,283.8h-57.89l-0.09-0.59l-0.75-4.89l-0.65-4.25l-0.739-4.88l-0.65-4.25l-0.75-4.891
			l-0.65-4.25h37.761c4.26,0,9.979,2.601,12.77,5.811l14.28,16.38C461.293,281.2,460.102,283.8,455.852,283.8z"/>
		<path style="fill:#1985A6;" d="M441.972,273.8l-4.898-5.618c-0.892-1.022-3.876-2.382-5.232-2.382h-26.115l1.223,8H441.972z"/>
		<path style="fill:#1985A6;" d="M421.433,220.63v63.17h-5.779v-70.55l5.34,6.81C421.143,220.25,421.283,220.44,421.433,220.63z"/>
		<path style="fill:#B3E7FF;" d="M352.395,255.8l-4.28,28h-57.88c-4.26,0-5.439-2.6-2.65-5.81l14.28-16.38
			c2.8-3.21,8.511-5.811,12.77-5.811H352.395z"/>
		<path style="fill:#1985A6;" d="M304.505,273.8l4.898-5.618c0.892-1.022,3.876-2.382,5.232-2.382h26.115l-1.223,8H304.505z"/>
		<path style="fill:#F5FAFF;" d="M415.593,162.81v129.73c0,4.12-3.24,7.49-7.3,7.7c-0.13,0.01-0.27,0.01-0.4,0.01h-69.37
			c-4.25,0-7.699-3.46-7.699-7.71V162.81c0-6.39,3.189-15.63,7.13-20.66l8.76-11.18l0.41-0.52l4.12-5.26l0.41-0.52l14.42-18.4
			c1.93-2.46,4.439-3.72,6.97-3.77c2.64-0.05,5.29,1.21,7.3,3.77l14.42,18.4l0.41,0.52l4.12,5.26l0.41,0.52l8.76,11.18
			C412.403,147.18,415.593,156.42,415.593,162.81z"/>
		<path style="fill:#1985A6;" d="M373.21,210.346c-13.535,0-24.548-11.012-24.548-24.548c0-13.536,11.013-24.548,24.548-24.548
			c13.536,0,24.548,11.012,24.548,24.548C397.758,199.334,386.746,210.346,373.21,210.346z"/>
		<rect x="348.803" y="300.24" style="fill:#1985A6;" width="49.021" height="6.939"/>
		<path style="fill:#F5FAFF;" d="M403.283,341.67c0,0-0.3-9.059-5.971-9.059c-19.05,0-21.84,35.479-23.999,36.399v0.08
			c0,0-0.041-0.01-0.101-0.04c-0.06,0.03-0.11,0.04-0.11,0.04v-0.08c-0.02-0.01-0.039-0.02-0.059-0.04
			c-2.191-1.54-7.22-36.359-23.931-36.359c-6.459,0-5.98,9.059-5.98,9.059s-8.28-20.62,5.66-34.49h48.83
			C411.563,321.05,403.283,341.67,403.283,341.67z"/>
		<path style="fill:#B3E7FF;" d="M386.873,307.18c-3.34,11.45-12.46,15.63-13.6,16.12v0.05c0,0-0.029-0.01-0.06-0.029
			c-0.04,0.02-0.069,0.029-0.069,0.029v-0.05c-0.031-0.01-0.061-0.03-0.101-0.05c-1.48-0.65-10.24-4.9-13.5-16.07H386.873z"/>
		<path style="fill:#B3E7FF;" d="M394.763,124.67h-43.109l14.42-18.4c1.93-2.46,4.439-3.72,6.97-3.77c2.64-0.05,5.29,1.21,7.3,3.77
			L394.763,124.67z"/>
		<rect x="330.825" y="246.667" style="fill:#DFE3E6;" width="84.77" height="4.25"/>
		<rect x="330.825" y="255.802" style="fill:#DFE3E6;" width="84.77" height="4.25"/>
		<rect x="330.825" y="264.936" style="fill:#DFE3E6;" width="84.77" height="4.25"/>
		<rect x="330.825" y="274.071" style="fill:#DFE3E6;" width="84.77" height="4.25"/>
		<rect x="330.823" y="283.21" style="fill:#DFE3E6;" width="84.77" height="4.25"/>
		<rect x="360.335" y="246.5" style="fill:#DFE3E6;" width="25.75" height="53.747"/>
		<rect x="370.335" y="255.802" style="fill:#DFE3E6;" width="5.75" height="28.001"/>
		<path style="fill:#1985A6;" d="M330.823,213.25v70.55h-5.78v-63.17c0.149-0.19,0.29-0.38,0.44-0.57L330.823,213.25z"/>
		<polygon style="fill:#1985A6;" points="399.293,130.45 347.123,130.45 351.243,125.19 351.653,124.67 394.763,124.67 
			395.173,125.19 		"/>
		<rect x="370.335" y="205.19" style="fill:#1985A6;" width="5.75" height="95.06"/>
		<g>
			<path style="fill:#004252;" d="M392.605,185.8c0,10.71-8.68,19.39-19.4,19.39c-8.1,0-15.03-4.96-17.94-12.01
				c-0.93-2.27-1.449-4.76-1.449-7.38c0-10.71,8.68-19.4,19.39-19.4c4.971,0,9.511,1.87,12.94,4.95
				C390.115,174.9,392.605,180.06,392.605,185.8z"/>
			<path style="opacity:0.4;fill:#F5FAFF;" d="M387.596,178.71c0,10.72-8.69,19.4-19.4,19.4c-4.96,0-9.5-1.86-12.931-4.93
				c-0.93-2.27-1.449-4.76-1.449-7.38c0-10.71,8.68-19.4,19.39-19.4c4.971,0,9.511,1.87,12.94,4.95
				C387.085,173.62,387.596,176.11,387.596,178.71z"/>
		</g>
		<polygon style="fill:#1985A6;" points="373.311,207.625 381.229,207.625 377.27,214.481 373.311,221.337 369.353,214.481 
			365.395,207.625 		"/>
		<polygon style="fill:#1985A6;" points="325.043,270.09 325.043,283.8 321.083,276.95 317.123,270.09 		"/>
		<polygon style="fill:#1985A6;" points="421.434,270.09 421.434,283.8 425.394,276.95 429.353,270.09 		"/>
	</g>
	<g>
		<circle style="fill:#F5FAFF;" cx="167.543" cy="62" r="3"/>
		<g>
			<path style="fill:#F5FAFF;" d="M578.224,303.711c0.659,1.752-0.76,3.174-2.514,2.514c-1.754,0.66-3.173-0.762-2.514-2.514
				c-0.659-1.752,0.76-3.174,2.514-2.514C577.464,300.537,578.883,301.959,578.224,303.711z"/>
		</g>
		<g>
			<path style="fill:#F5FAFF;" d="M702.662,257.927c0.659,1.752-0.76,3.174-2.514,2.514c-1.754,0.66-3.173-0.762-2.514-2.514
				c-0.659-1.752,0.76-3.174,2.514-2.514C701.902,254.753,703.321,256.175,702.662,257.927z"/>
		</g>
		<g>
			<path style="fill:#F5FAFF;" d="M702.662,77c0.659,1.752-0.76,3.174-2.514,2.514c-1.754,0.66-3.173-0.762-2.514-2.514
				c-0.659-1.752,0.76-3.174,2.514-2.514C701.902,73.826,703.321,75.248,702.662,77z"/>
		</g>
		<path style="fill:#F5FAFF;" d="M216.376,126.834c0,1.197-0.971,2.166-2.166,2.166c-1.197,0-2.167-0.97-2.167-2.166
			c0-1.196,0.97-2.167,2.167-2.167C215.405,124.667,216.376,125.637,216.376,126.834z"/>
		<path style="fill:#F5FAFF;" d="M63.534,102.498c0,1.197-0.971,2.167-2.166,2.167c-1.197,0-2.167-0.97-2.167-2.167
			c0-1.196,0.97-2.166,2.167-2.166C62.563,100.332,63.534,101.302,63.534,102.498z"/>
		<g>
			<path style="fill:#F5FAFF;" d="M167.012,232.276c0.72,1.914-0.831,3.465-2.745,2.745c-1.913,0.72-3.465-0.831-2.744-2.745
				c-0.721-1.914,0.831-3.465,2.744-2.745C166.181,228.811,167.731,230.362,167.012,232.276z"/>
		</g>
		<g>
			<path style="fill:#F5FAFF;" d="M68.327,210.346c0.72,1.914-0.831,3.465-2.745,2.745c-1.913,0.72-3.465-0.831-2.744-2.745
				c-0.721-1.914,0.831-3.465,2.744-2.745C67.496,206.881,69.047,208.433,68.327,210.346z"/>
		</g>
		<path style="fill:#F5FAFF;" d="M263.543,192.729c0,0.955-0.774,1.729-1.729,1.729c-0.955,0-1.729-0.774-1.729-1.729
			c0-0.955,0.773-1.729,1.729-1.729C262.769,191,263.543,191.774,263.543,192.729z"/>
		<path style="fill:#F5FAFF;" d="M221.543,309.76c0,1.428-1.157,2.584-2.583,2.584c-1.428,0-2.584-1.156-2.584-2.584
			c0-1.427,1.156-2.583,2.584-2.583C220.386,307.177,221.543,308.333,221.543,309.76z"/>
		<path style="fill:#F5FAFF;" d="M118.533,312.344c0,1.428-1.157,2.584-2.583,2.584c-1.428,0-2.584-1.156-2.584-2.584
			c0-1.427,1.156-2.583,2.584-2.583C117.376,309.761,118.533,310.917,118.533,312.344z"/>
		<circle style="fill:#F5FAFF;" cx="581.96" cy="29" r="3.25"/>
		<circle style="fill:#F5FAFF;" cx="553.793" cy="128.083" r="1.25"/>
		<circle style="fill:#F5FAFF;" cx="325.39" cy="43.75" r="1.25"/>
		<path style="fill:#F5FAFF;" d="M506.543,221.943c0,1.073-0.87,1.943-1.943,1.943c-1.073,0-1.943-0.87-1.943-1.943
			c0-1.073,0.87-1.943,1.943-1.943C505.673,220,506.543,220.87,506.543,221.943z"/>
		<circle style="fill:#F5FAFF;" cx="661.866" cy="161.25" r="1.943"/>
		<circle style="fill:#F5FAFF;" cx="453.293" cy="43.75" r="3.25"/>
		<g>
			<path style="fill:#DFE3E6;" d="M450.57,43.75c-0.715-1.894,0.829-3.438,2.723-2.723c1.893-0.715,3.438,0.829,2.723,2.723
				c0.715,1.894-0.829,3.438-2.723,2.723C451.399,47.188,449.855,45.644,450.57,43.75z"/>
		</g>
	</g>
</g>
<g id="BACKGROUND_1">
</g>
<g id="DESIGNED_BY_FREEPIK">
	<g>
		<g id="XMLID_1_">
			<g id="XMLID_20_">
				<path id="XMLID_28_" style="fill:#FFFFFF;" d="M383.416,473.465c-0.432,0.443-0.803,0.932-1.107,1.453l-0.465-0.241
					c-0.068-0.297-0.35-0.502-0.66-0.466c-0.33,0.039-0.566,0.339-0.529,0.67c0.039,0.331,0.34,0.567,0.67,0.528
					c0.066-0.007,0.127-0.025,0.184-0.052l0.451,0.234c-0.25,0.554-0.432,1.139-0.539,1.743l0.748,0.132
					c0.228-1.306,0.85-2.507,1.791-3.473L383.416,473.465z"/>
				<path id="XMLID_27_" style="fill:#FFFFFF;" d="M388.904,471.163c-0.172,0-0.342,0.006-0.51,0.017l-0.074-0.626
					c0.188-0.149,0.297-0.389,0.266-0.645c-0.045-0.393-0.402-0.674-0.795-0.628c-0.393,0.046-0.674,0.402-0.627,0.796
					c0.029,0.254,0.189,0.461,0.404,0.564l0.072,0.624c-0.713,0.116-1.402,0.332-2.059,0.646l0.326,0.685
					c0.935-0.447,1.941-0.674,2.996-0.674c0.496,0,0.992,0.053,1.475,0.158l0.16-0.741
					C390.004,471.222,389.455,471.163,388.904,471.163z"/>
				<path id="XMLID_26_" style="fill:#FFFFFF;" d="M395.506,473.71c0.332-0.04,0.566-0.341,0.525-0.672
					c-0.039-0.331-0.34-0.566-0.672-0.525c-0.309,0.038-0.535,0.304-0.529,0.608l-0.416,0.363c-0.418-0.43-0.891-0.813-1.408-1.14
					l-0.404,0.642c1.135,0.715,2.021,1.727,2.564,2.925l0.69-0.313c-0.25-0.554-0.566-1.071-0.941-1.545l0.402-0.351
					C395.377,473.715,395.441,473.719,395.506,473.71z"/>
				<path id="XMLID_25_" style="fill:#FFFFFF;" d="M388.357,481.371c-0.387,0.023-0.775,0.035-1.158,0.035
					c-0.879,0-1.732-0.061-2.479-0.18c-0.391-0.062-0.846-0.154-1.27-0.292c1.047,1.861,3.068,3.125,5.389,3.125
					c2.855,0,5.262-1.916,5.949-4.503c-0.682,0.449-1.506,0.825-2.459,1.122C391.15,481.047,389.775,481.286,388.357,481.371z"/>
				<path id="XMLID_21_" style="fill:#FFFFFF;" d="M388.904,472.68c-3.352,0-6.08,2.666-6.08,5.943c0,0.425,0.047,0.849,0.137,1.261
					c0.674,0.483,2.707,0.891,5.348,0.731c2.881-0.174,5.297-0.958,6.672-2.159c-0.004-0.194-0.02-0.39-0.045-0.581
					C394.557,474.913,391.963,472.68,388.904,472.68z M386.744,479.194c-1.02,0-1.85-0.83-1.85-1.85c0-1.021,0.83-1.851,1.85-1.851
					c1.02,0,1.85,0.83,1.85,1.851C388.594,478.364,387.764,479.194,386.744,479.194z M391.482,478.286
					c-0.75,0-1.361-0.61-1.361-1.36s0.611-1.36,1.361-1.36s1.359,0.61,1.359,1.36S392.232,478.286,391.482,478.286z"/>
			</g>
			<path id="XMLID_18_" style="fill:#FFFFFF;" d="M404.908,474.547c-0.295-0.116-0.807-0.31-1.383-0.238
				c-0.551,0.069-0.844,0.341-0.844,1.007v0.866h2.229v1.717h-2.229v5.455h-1.932v-5.455h-1.34v-1.717h1.34v-0.889
				c0-1.68,0.895-2.782,2.568-2.782c0.642,0,1.156,0.121,1.59,0.308V474.547z"/>
			<path id="XMLID_16_" style="fill:#FFFFFF;" d="M409.609,477.878c-0.176-0.029-0.357-0.046-0.525-0.046
				c-0.895,0-1.51,0.548-1.51,1.613v3.908h-1.932v-7.172h1.873v0.784c0.451-0.673,1.139-0.977,2.02-0.977
				c0.414,0,0.848,0.128,1.096,0.337L409.609,477.878z"/>
			<path id="XMLID_13_" style="fill:#FFFFFF;" d="M417.277,479.757c0,0.222-0.016,0.488-0.037,0.651h-5.084
				c0.207,1.036,0.932,1.487,1.842,1.487c0.623,0,1.295-0.252,1.815-0.689l1.133,1.243c-0.814,0.748-1.852,1.089-3.057,1.089
				c-2.199,0-3.725-1.496-3.725-3.753c0-2.258,1.48-3.797,3.627-3.797C415.855,475.989,417.27,477.522,417.277,479.757z
				 M412.164,479.091h3.174c-0.178-0.918-0.732-1.436-1.561-1.436C412.867,477.654,412.334,478.202,412.164,479.091z"/>
			<path id="XMLID_10_" style="fill:#FFFFFF;" d="M424.932,479.757c0,0.222-0.016,0.488-0.037,0.651h-5.086
				c0.207,1.036,0.934,1.487,1.844,1.487c0.621,0,1.295-0.252,1.813-0.689l1.133,1.243c-0.814,0.748-1.85,1.089-3.057,1.089
				c-2.199,0-3.723-1.496-3.723-3.753c0-2.258,1.48-3.797,3.627-3.797C423.51,475.989,424.924,477.522,424.932,479.757z
				 M419.816,479.091h3.176c-0.178-0.918-0.734-1.436-1.563-1.436C420.52,477.654,419.986,478.202,419.816,479.091z"/>
			<path id="XMLID_7_" style="fill:#FFFFFF;" d="M433.277,479.764c0,2.154-1.496,3.775-3.473,3.775
				c-0.961,0-1.643-0.378-2.109-0.933v3.708h-1.924v-10.133h1.887v0.792c0.467-0.585,1.154-0.984,2.139-0.984
				C431.781,475.989,433.277,477.61,433.277,479.764z M427.6,479.764c0,1.133,0.748,1.977,1.844,1.977
				c1.139,0,1.85-0.881,1.85-1.977c0-1.095-0.711-1.976-1.85-1.976C428.348,477.788,427.6,478.632,427.6,479.764z"/>
			<path id="XMLID_4_" style="fill:#FFFFFF;" d="M436.381,473.835c0,0.696-0.541,1.23-1.236,1.23c-0.697,0-1.229-0.533-1.229-1.23
				c0-0.695,0.531-1.243,1.229-1.243C435.84,472.592,436.381,473.14,436.381,473.835z M436.121,483.353h-1.932v-7.172h1.932V483.353
				z"/>
			<path id="XMLID_2_" style="fill:#FFFFFF;" d="M439.344,478.735l2.703-2.554h2.367l-3.479,3.375l3.502,3.797h-2.377l-2.717-2.901
				v2.901h-1.932v-10.658h1.932V478.735z"/>
		</g>
		<g>
			<path style="fill:#FFFFFF;" d="M307.725,483.289v-1.055c-0.527,0.718-1.391,1.23-2.387,1.23c-1.846,0-3.15-1.406-3.15-3.706
				c0-2.256,1.289-3.721,3.15-3.721c0.951,0,1.816,0.469,2.387,1.245v-3.765h1.1v9.771H307.725z M307.725,481.37v-3.208
				c-0.395-0.615-1.244-1.143-2.124-1.143c-1.421,0-2.271,1.172-2.271,2.739c0,1.567,0.85,2.725,2.271,2.725
				C306.48,482.483,307.33,481.985,307.725,481.37z"/>
			<path style="fill:#FFFFFF;" d="M310.244,479.744c0-2.051,1.465-3.706,3.486-3.706c2.139,0,3.398,1.67,3.398,3.794v0.278h-5.728
				c0.088,1.333,1.025,2.446,2.549,2.446c0.806,0,1.626-0.322,2.183-0.894l0.527,0.718c-0.703,0.703-1.655,1.084-2.813,1.084
				C311.753,483.465,310.244,481.956,310.244,479.744z M313.716,476.946c-1.509,0-2.256,1.274-2.314,2.358h4.643
				C316.03,478.25,315.327,476.946,313.716,476.946z"/>
			<path style="fill:#FFFFFF;" d="M317.92,482.352l0.57-0.791c0.469,0.542,1.363,1.011,2.329,1.011c1.085,0,1.671-0.513,1.671-1.216
				c0-1.714-4.381-0.659-4.381-3.281c0-1.099,0.952-2.036,2.637-2.036c1.201,0,2.051,0.454,2.623,1.025l-0.514,0.762
				c-0.424-0.513-1.201-0.894-2.109-0.894c-0.967,0-1.566,0.483-1.566,1.113c0,1.553,4.379,0.527,4.379,3.281
				c0,1.186-0.951,2.139-2.783,2.139C319.619,483.465,318.637,483.113,317.92,482.352z"/>
			<path style="fill:#FFFFFF;" d="M324.789,474.471c0-0.41,0.338-0.747,0.732-0.747c0.41,0,0.747,0.337,0.747,0.747
				c0,0.41-0.337,0.732-0.747,0.732C325.127,475.203,324.789,474.881,324.789,474.471z M324.979,483.289v-7.075h1.099v7.075H324.979
				z"/>
			<path style="fill:#FFFFFF;" d="M327.895,485.105l0.557-0.82c0.586,0.703,1.289,0.967,2.299,0.967
				c1.172,0,2.271-0.571,2.271-2.124v-1.011c-0.514,0.718-1.377,1.26-2.373,1.26c-1.846,0-3.15-1.377-3.15-3.662
				c0-2.271,1.289-3.677,3.15-3.677c0.951,0,1.801,0.469,2.373,1.245v-1.069h1.098v6.87c0,2.344-1.641,3.076-3.369,3.076
				C329.549,486.16,328.728,485.925,327.895,485.105z M333.021,481.253v-3.091c-0.381-0.615-1.23-1.143-2.109-1.143
				c-1.422,0-2.27,1.128-2.27,2.695c0,1.553,0.849,2.695,2.27,2.695C331.791,482.41,332.641,481.868,333.021,481.253z"/>
			<path style="fill:#FFFFFF;" d="M340.726,483.289v-4.629c0-1.245-0.63-1.641-1.582-1.641c-0.864,0-1.685,0.527-2.095,1.099v5.171
				h-1.099v-7.075h1.099v1.025c0.498-0.586,1.465-1.201,2.52-1.201c1.479,0,2.256,0.747,2.256,2.285v4.966H340.726z"/>
			<path style="fill:#FFFFFF;" d="M343.244,479.744c0-2.051,1.465-3.706,3.486-3.706c2.139,0,3.398,1.67,3.398,3.794v0.278h-5.727
				c0.088,1.333,1.025,2.446,2.549,2.446c0.805,0,1.625-0.322,2.182-0.894l0.527,0.718c-0.703,0.703-1.654,1.084-2.813,1.084
				C344.754,483.465,343.244,481.956,343.244,479.744z M346.717,476.946c-1.51,0-2.256,1.274-2.315,2.358h4.643
				C349.031,478.25,348.328,476.946,346.717,476.946z"/>
			<path style="fill:#FFFFFF;" d="M356.662,483.289v-1.055c-0.527,0.718-1.391,1.23-2.388,1.23c-1.845,0-3.149-1.406-3.149-3.706
				c0-2.256,1.289-3.721,3.149-3.721c0.952,0,1.817,0.469,2.388,1.245v-3.765h1.099v9.771H356.662z M356.662,481.37v-3.208
				c-0.395-0.615-1.244-1.143-2.123-1.143c-1.422,0-2.272,1.172-2.272,2.739c0,1.567,0.85,2.725,2.272,2.725
				C355.418,482.483,356.267,481.985,356.662,481.37z"/>
			<path style="fill:#FFFFFF;" d="M363.004,483.289v-9.771h1.1v3.765c0.57-0.776,1.42-1.245,2.387-1.245
				c1.846,0,3.15,1.465,3.15,3.721c0,2.3-1.305,3.706-3.15,3.706c-0.996,0-1.859-0.513-2.387-1.23v1.055H363.004z M366.213,482.483
				c1.435,0,2.285-1.157,2.285-2.725c0-1.567-0.85-2.739-2.285-2.739c-0.865,0-1.728,0.527-2.109,1.143v3.208
				C364.484,481.985,365.348,482.483,366.213,482.483z"/>
			<path style="fill:#FFFFFF;" d="M370.841,485.061c0.161,0.073,0.425,0.117,0.601,0.117c0.483,0,0.806-0.161,1.055-0.747
				l0.469-1.069l-2.959-7.148h1.186l2.358,5.801l2.344-5.801h1.201l-3.545,8.511c-0.425,1.024-1.143,1.421-2.08,1.436
				c-0.234,0-0.601-0.044-0.806-0.104L370.841,485.061z"/>
		</g>
	</g>
</g>
</svg>
